<svg xmlns="http://www.w3.org/2000/svg" xmlns:xlink="http://www.w3.org/1999/xlink" width="500" zoomAndPan="magnify" viewBox="0 0 375 374.999991" height="500" preserveAspectRatio="xMidYMid meet" version="1.0"><defs><clipPath id="9b78a31e6d"><path d="M 136.03125 112.5 L 238.78125 112.5 L 238.78125 260 L 136.03125 260 Z M 136.03125 112.5 " clip-rule="nonzero"/></clipPath></defs><rect x="-37.5" width="450" fill="#ffffff" y="-37.499999" height="449.999989" fill-opacity="1"/><rect x="-37.5" width="450" fill="#ffffff" y="-37.499999" height="449.999989" fill-opacity="1"/><g clip-path="url(#9b78a31e6d)"><path fill="#696fff" d="M 187.5 112.550781 C 215.925781 112.550781 238.972656 135.59375 238.972656 164.019531 C 238.972656 173.910156 236.179688 183.144531 231.34375 190.988281 C 225.542969 200.597656 219.742188 210.207031 213.941406 219.816406 C 206.875 231.300781 201.160156 240.59375 194.097656 252.078125 C 187.867188 262.203125 187.449219 262.449219 181.1875 252.273438 C 174.160156 240.847656 168.25 231.242188 161.222656 219.816406 C 155.433594 210.316406 149.648438 200.816406 143.859375 191.3125 C 138.902344 183.402344 136.03125 174.046875 136.03125 164.019531 C 136.03125 135.59375 159.074219 112.550781 187.5 112.550781 Z M 187.5 138.355469 C 200.246094 138.355469 210.574219 148.683594 210.574219 161.429688 C 210.574219 174.171875 200.246094 184.5 187.5 184.5 C 174.757812 184.5 164.425781 174.171875 164.425781 161.429688 C 164.425781 148.683594 174.757812 138.355469 187.5 138.355469 Z M 187.5 138.355469 " fill-opacity="1" fill-rule="evenodd"/></g></svg>