<svg width="50" height="50" viewBox="0 0 50 50" fill="none" xmlns="http://www.w3.org/2000/svg">
<path d="M25 0C20.0555 0 15.222 1.46622 11.1108 4.21326C6.99952 6.96029 3.79521 10.8648 1.90302 15.4329C0.0108317 20.0011 -0.484251 25.0277 0.480379 29.8773C1.44501 34.7268 3.82603 39.1813 7.32234 42.6777C10.8187 46.174 15.2732 48.555 20.1227 49.5196C24.9723 50.4842 29.9989 49.9892 34.5671 48.097C39.1352 46.2048 43.0397 43.0005 45.7867 38.8892C48.5338 34.778 50 29.9445 50 25C49.9922 18.372 47.3558 12.0176 42.6691 7.33093C37.9823 2.6442 31.628 0.00778394 25 0ZM11.1373 42.1569C12.5755 39.7653 14.6079 37.7866 17.037 36.4129C19.4662 35.0391 22.2094 34.3172 25 34.3172C27.7907 34.3172 30.5339 35.0391 32.963 36.4129C35.3921 37.7866 37.4245 39.7653 38.8627 42.1569C34.9421 45.3361 30.0477 47.0712 25 47.0712C19.9523 47.0712 15.0579 45.3361 11.1373 42.1569ZM16.6667 23.0392C16.6667 21.391 17.1554 19.7799 18.0711 18.4095C18.9868 17.039 20.2883 15.9709 21.811 15.3402C23.3337 14.7095 25.0093 14.5445 26.6258 14.866C28.2423 15.1875 29.7271 15.9812 30.8926 17.1467C32.058 18.3121 32.8517 19.7969 33.1732 21.4135C33.4948 23.03 33.3297 24.7055 32.699 26.2282C32.0683 27.751 31.0002 29.0524 29.6298 29.9681C28.2593 30.8838 26.6482 31.3725 25 31.3725C22.7899 31.3725 20.6703 30.4946 19.1074 28.9318C17.5446 27.369 16.6667 25.2493 16.6667 23.0392ZM41.0564 40.1078C38.7458 36.515 35.292 33.8056 31.2525 32.4167C33.2667 31.075 34.7959 29.1208 35.6137 26.843C36.4316 24.5652 36.4947 22.0847 35.7939 19.7682C35.093 17.4517 33.6654 15.4222 31.722 13.9798C29.7786 12.5373 27.4226 11.7585 25.0025 11.7585C22.5823 11.7585 20.2263 12.5373 18.2829 13.9798C16.3395 15.4222 14.9119 17.4517 14.211 19.7682C13.5102 22.0847 13.5734 24.5652 14.3912 26.843C15.2091 29.1208 16.7382 31.075 18.7525 32.4167C14.7129 33.8056 11.2592 36.515 8.94854 40.1078C5.99469 36.9732 4.02311 33.0425 3.27707 28.8005C2.53103 24.5585 3.04316 20.1909 4.75027 16.2366C6.45738 12.2823 9.28479 8.9142 12.8837 6.54795C16.4825 4.1817 20.6954 2.92079 25.0025 2.92079C29.3095 2.92079 33.5224 4.1817 37.1213 6.54795C40.7201 8.9142 43.5475 12.2823 45.2546 16.2366C46.9618 20.1909 47.4739 24.5585 46.7278 28.8005C45.9818 33.0425 44.0102 36.9732 41.0564 40.1078Z" fill="black"/>
</svg>
